<?xml version="1.0" encoding="utf-8"?>
<!-- Generator: Adobe Illustrator 19.0.0, SVG Export Plug-In . SVG Version: 6.00 Build 0)  -->
<svg version="1.1" id="Camada_1" xmlns="http://www.w3.org/2000/svg" xmlns:xlink="http://www.w3.org/1999/xlink" x="0px" y="0px"
	 viewBox="226 -226 512 512" style="enable-background:new 226 -226 512 512;" xml:space="preserve">
<style type="text/css">
	.st0{fill:#2196F3;}
	.st1{fill:#FAFAFA;}
</style>
<path class="st0" d="M482-226c-141.2,0-256,114.8-256,256s114.8,256,256,256S738,171.2,738,30S623.2-226,482-226z"/>
<path class="st1" d="M594,51.3h-90.7V142c0,11.8-9.6,21.3-21.3,21.3s-21.3-9.6-21.3-21.3V51.3H370c-11.8,0-21.3-9.6-21.3-21.3
	S358.2,8.7,370,8.7h90.7V-82c0-11.8,9.6-21.3,21.3-21.3s21.3,9.6,21.3,21.3V8.7H594c11.8,0,21.3,9.6,21.3,21.3S605.8,51.3,594,51.3z
	"/>
</svg>
