<?xml version="1.0" encoding="utf-8"?>
<!-- Generator: Adobe Illustrator 24.1.2, SVG Export Plug-In . SVG Version: 6.00 Build 0)  -->
<svg version="1.1" id="Camada_1" xmlns="http://www.w3.org/2000/svg" xmlns:xlink="http://www.w3.org/1999/xlink" x="0px" y="0px"
	 viewBox="0 0 30 30" style="enable-background:new 0 0 30 30;" xml:space="preserve">
<style type="text/css">
	.st0{fill:#E50027;}
	.st1{fill:#FD003A;}
	.st2{fill:#FAFBFF;}
</style>
<g>
	<path class="st0" d="M27,20.5L18.2,5.7c-0.7-1.1-1.8-1.8-3.2-1.8s-2.5,0.7-3.2,1.8L3,20.5c-0.7,1.2-0.7,2.5,0,3.7
		c0.7,1.2,1.8,1.8,3.2,1.8h17.7c1.3,0,2.5-0.7,3.2-1.8C27.7,23.1,27.7,21.7,27,20.5z"/>
	<path class="st1" d="M6.2,24.6c-0.8,0-1.5-0.4-1.9-1.1c-0.4-0.7-0.4-1.5,0-2.2l8.8-14.8c0.4-0.7,1.1-1.1,1.9-1.1s1.5,0.4,1.9,1.1
		l8.8,14.8c0.4,0.7,0.4,1.5,0,2.2c-0.4,0.7-1.1,1.1-1.9,1.1L6.2,24.6L6.2,24.6z"/>
	<path class="st2" d="M16.5,9.9v5.9c0,0.8-0.7,1.5-1.5,1.5s-1.5-0.7-1.5-1.5V9.9c0-0.8,0.7-1.5,1.5-1.5C15.8,8.5,16.5,9.1,16.5,9.9z
		"/>
	<path class="st2" d="M15,18.7c-1.2,0-2.2,1-2.2,2.2c0,1.2,1,2.2,2.2,2.2s2.2-1,2.2-2.2C17.2,19.7,16.2,18.7,15,18.7z"/>
</g>
</svg>
