<?xml version="1.0" encoding="utf-8"?>
<!-- Generator: Adobe Illustrator 24.1.3, SVG Export Plug-In . SVG Version: 6.00 Build 0)  -->
<svg version="1.1" id="Layer_1" xmlns="http://www.w3.org/2000/svg" xmlns:xlink="http://www.w3.org/1999/xlink" x="0px" y="0px"
	 viewBox="0 0 35 35" style="enable-background:new 0 0 35 35;" xml:space="preserve">
<style type="text/css">
	.st0{fill:none;stroke:#505050;stroke-width:0.6;stroke-miterlimit:10;}
	.st1{fill:#499ED0;}
</style>
<rect x="-488.3" y="354.7" class="st0" width="0.8" height="0.3"/>
<g>
	<path class="st1" d="M8.5,15.5h5.8c0.2,0,0.4-0.2,0.4-0.4s-0.2-0.4-0.4-0.4H8.5C8.3,14.6,8,14.8,8,15S8.3,15.5,8.5,15.5z"/>
	<path class="st1" d="M20.2,17.3H8.5c-0.2,0-0.5,0.2-0.5,0.5s0.2,0.5,0.5,0.5h11.7c0.2,0,0.5-0.2,0.5-0.5S20.4,17.3,20.2,17.3z"/>
	<path class="st1" d="M20.2,20H8.5C8.3,20,8,20.2,8,20.4c0,0.2,0.2,0.5,0.5,0.5h11.7c0.2,0,0.5-0.2,0.5-0.5
		C20.6,20.2,20.4,20,20.2,20z"/>
	<path class="st1" d="M28.3,5.1L13,5.1c-1.5,0-2.7,1.2-2.7,2.7v2.3l-3.6,0c-1.5,0-2.7,1.2-2.7,2.7v9.5c0,1.5,1.2,2.7,2.7,2.7h2.7
		v4.5c0,0.2,0.1,0.4,0.3,0.4c0.1,0,0.1,0,0.2,0c0.1,0,0.2-0.1,0.3-0.1l4.4-4.8l7.5,0c1.5,0,2.7-1.2,2.7-2.7v-0.1l2.4,2.6
		c0.1,0.1,0.2,0.1,0.3,0.1c0.1,0,0.1,0,0.2,0c0.2-0.1,0.3-0.2,0.3-0.4V20h0.5c1.5,0,2.7-1.2,2.7-2.7V7.8C31,6.3,29.8,5.1,28.3,5.1z
		 M23.8,22.2c0,1-0.8,1.8-1.8,1.8l-7.7,0c-0.1,0-0.2,0.1-0.3,0.1l-3.7,4.1v-3.8c0-0.2-0.2-0.5-0.4-0.5H6.7c-1,0-1.8-0.8-1.8-1.8
		v-9.5c0-1,0.8-1.8,1.8-1.8l4.1,0l0,0c0,0,0,0,0,0L22,11c1,0,1.8,0.8,1.8,1.8V21V22.2z M30.1,17.3c0,1-0.8,1.8-1.8,1.8h-0.9
		c-0.2,0-0.4,0.2-0.4,0.4v3.8l-2.3-2.5v-8.1c0-1.5-1.2-2.7-2.7-2.7l-10.8,0V7.8C11.2,6.8,12,6,13,6l15.4,0c0,0,0,0,0,0
		c1,0,1.8,0.8,1.8,1.8L30.1,17.3L30.1,17.3z"/>
</g>
</svg>
