<?xml version="1.0" encoding="utf-8"?>
<!-- Generator: Adobe Illustrator 19.0.0, SVG Export Plug-In . SVG Version: 6.00 Build 0)  -->
<svg version="1.1" id="Layer_1" xmlns="http://www.w3.org/2000/svg" xmlns:xlink="http://www.w3.org/1999/xlink" x="0px" y="0px"
	 viewBox="-288 379 35 35" style="enable-background:new -288 379 35 35;" xml:space="preserve">
<style type="text/css">
	.st0{fill:none;stroke:#505050;stroke-width:0.6;stroke-miterlimit:10;}
	.st1{fill:#11C25D;}
</style>
<rect x="-776.3" y="733.7" class="st0" width="0.8" height="0.3"/>
<g>
	<g>
		<g>
			<path class="st1" d="M-258.5,398.7c0-0.6-0.2-1.2-0.6-1.6c0.5-0.5,0.7-1.2,0.6-1.9c-0.1-1.3-1.3-2.2-2.6-2.2h-6.2
				c0.3-1,0.8-2.6,0.8-4c0-2.2-1.8-4-3-4c-1,0-1.8,0.6-1.8,0.6c-0.1,0.1-0.2,0.2-0.2,0.4v3.4l-2.9,6.3l-0.1,0.1v-0.2
				c0-0.2-0.2-0.5-0.5-0.5h-5c-1.4,0-2.5,1.1-2.5,2.5v8c0,1.4,1.1,2.5,2.5,2.5h3c1.1,0,2-0.7,2.3-1.7c0.8,0.4,1.9,0.6,2.6,0.6h9.2
				c1.1,0,2.1-0.7,2.2-1.8c0.1-0.6,0.1-1-0.2-1.5c0.7-0.4,1.2-1.1,1.2-2c0-0.3-0.1-0.7-0.2-1C-259,400.4-258.5,399.6-258.5,398.7z
				 M-260.6,400c-0.2,0-0.3,0.2-0.4,0.3c-0.1,0.2,0,0.4,0.2,0.6c0.2,0.2,0.4,0.6,0.4,0.9c0,0.6-0.5,1.2-1.1,1.2
				c-0.2,0-0.3,0.2-0.4,0.3c-0.1,0.2,0,0.4,0.2,0.6c0.3,0.3,0.5,0.7,0.4,1.2c-0.2,0.6-0.6,1-1.3,1h-9.2c-0.8,0-2.2-0.4-2.6-0.9
				c-0.2-0.2-0.3-0.2-0.6-0.1c-0.2,0.1-0.3,0.2-0.3,0.5c0,0.8-0.6,1.5-1.5,1.5h-3c-0.8,0-1.5-0.6-1.5-1.5v-8c0-0.8,0.6-1.5,1.5-1.5
				h4.5v0.5c0,0.2,0.1,0.3,0.2,0.4c0.2,0.1,0.3,0.1,0.5,0l1-0.5c0.1-0.1,0.2-0.2,0.2-0.2l3-6.5c0-0.1,0.1-0.2,0.1-0.2v-3.2
				c0.2-0.1,0.6-0.2,1-0.2c0.6,0,2,1.4,2,3c0,1.8-1,4.3-1,4.3c-0.1,0.2,0,0.3,0.1,0.5c0.1,0.2,0.2,0.2,0.4,0.2h6.9
				c0.8,0,1.5,0.6,1.6,1.4c0.1,0.6-0.2,1.1-0.7,1.4c-0.2,0.1-0.2,0.2-0.2,0.5s0.1,0.3,0.2,0.4c0.4,0.2,0.7,0.6,0.7,1.1
				C-259.5,399.4-260,399.9-260.6,400z"/>
		</g>
	</g>
	<g>
		<g>
			<path class="st1" d="M-275,396c-0.2,0-0.5,0.2-0.5,0.5v9.1c0,0.2,0.2,0.5,0.5,0.5c0.2,0,0.5-0.2,0.5-0.5v-9.1
				C-274.6,396.3-274.8,396-275,396z"/>
		</g>
	</g>
</g>
</svg>
