<?xml version="1.0" encoding="utf-8"?>
<!-- Generator: Adobe Illustrator 19.0.0, SVG Export Plug-In . SVG Version: 6.00 Build 0)  -->
<svg version="1.1" id="Layer_1" xmlns="http://www.w3.org/2000/svg" xmlns:xlink="http://www.w3.org/1999/xlink" x="0px" y="0px"
	 viewBox="-12 13 35 35" style="enable-background:new -12 13 35 35;" xml:space="preserve">
<style type="text/css">
	.st0{fill:none;stroke:#505050;stroke-width:0.6;stroke-miterlimit:10;}
	.st1{fill:#4CAF50;}
	.st2{fill:#2196F3;}
</style>
<rect x="-200.3" y="-24.3" class="st0" width="0.8" height="0.3"/>
<g>
	<path class="st1" d="M9,36c-0.7,0.7-1.9,1.2-3,1.2S3.8,36.7,3,36l-6.1-6.1c-0.7-0.7-1.2-1.9-1.2-3c0-1.1,0.5-2.2,1.2-3
		s1.9-1.2,3-1.2s2.2,0.5,3,1.2l3,3l8.3-8.3C11.5,16.2,8,14.8,4,14.8c-8.6,0-15.7,7-15.7,15.7c0,8.6,7,15.7,15.7,15.7
		c8.6,0,15.7-7,15.7-15.7c0-1.6-0.2-3.2-0.7-4.6L9,36z"/>
	<path class="st2" d="M6,34.4c-0.4,0-0.7-0.1-1-0.4l-6.1-6.1c-0.5-0.5-0.5-1.5,0-2s1.5-0.5,2,0L6,31l14.3-14.3c0.5-0.5,1.5-0.5,2,0
		c0.5,0.5,0.5,1.5,0,2L7,34C6.7,34.2,6.4,34.4,6,34.4z"/>
</g>
</svg>
