<?xml version="1.0" encoding="utf-8"?>
<!-- Generator: Adobe Illustrator 19.0.0, SVG Export Plug-In . SVG Version: 6.00 Build 0)  -->
<svg version="1.1" id="Camada_1" xmlns="http://www.w3.org/2000/svg" xmlns:xlink="http://www.w3.org/1999/xlink" x="0px" y="0px"
	 viewBox="0 0 30 30" style="enable-background:new 0 0 30 30;" xml:space="preserve">
<style type="text/css">
	.st0{fill:#E24C4C;}
	.st1{fill:#FFFFFF;}
</style>
<g id="XMLID_1_">
	<circle id="XMLID_3_" class="st0" cx="15" cy="15" r="14.5"/>
	<path id="XMLID_2_" class="st1" d="M21.6,21.6c-0.5,0.5-1.5,0.5-2,0L15,17l-4.6,4.6c-0.5,0.5-1.5,0.5-2,0c-0.5-0.5-0.5-1.5,0-2
		L13,15l-4.6-4.6c-0.5-0.5-0.5-1.5,0-2c0.5-0.5,1.5-0.5,2,0L15,13l4.6-4.6c0.5-0.5,1.5-0.5,2,0c0.5,0.5,0.5,1.5,0,2L17,15l4.6,4.6
		C22.2,20.2,22.2,21.1,21.6,21.6z"/>
</g>
</svg>
