<?xml version="1.0" encoding="utf-8"?>
<!-- Generator: Adobe Illustrator 24.3.0, SVG Export Plug-In . SVG Version: 6.00 Build 0)  -->
<svg version="1.1" id="Layer_1" xmlns="http://www.w3.org/2000/svg" xmlns:xlink="http://www.w3.org/1999/xlink" x="0px" y="0px"
	 viewBox="0 0 35 35" style="enable-background:new 0 0 35 35;" xml:space="preserve">
<style type="text/css">
	.st0{fill:none;stroke:#505050;stroke-width:0.6;stroke-miterlimit:10;}
	.st1{fill:#4C4C4E;}
	.st2{fill:none;stroke:#4C4C4E;stroke-width:0.75;stroke-linecap:round;stroke-linejoin:round;stroke-miterlimit:10;}
</style>
<rect x="-488.3" y="354.7" class="st0" width="0.8" height="0.3"/>
<g>
	<g>
		<path class="st1" d="M28.1,4.6h-18C9.9,4.6,9.7,4.8,9.7,5v3.5H6.8c-0.2,0-0.4,0.2-0.4,0.4V30c0,0.2,0.2,0.4,0.4,0.4h18
			c0.2,0,0.4-0.2,0.4-0.4v-3.5h2.9c0.2,0,0.4-0.2,0.4-0.4V5C28.5,4.7,28.3,4.6,28.1,4.6L28.1,4.6L28.1,4.6z M7.3,29.7V9.2h17.2v17
			l0,0l0,0v3.5H7.3z M27.7,25.8h-2.5v-17c0-0.2-0.2-0.4-0.4-0.4H10.5V5.3h17.2L27.7,25.8L27.7,25.8z"/>
	</g>
	<g>
		<polyline class="st2" points="18.5,16.8 19.4,18.5 22,12.7 15.7,11.6 16.6,13.4 		"/>
		<path class="st2" d="M18.5,16.8c-3.3,1.8-6,6.4-5,10.5"/>
		<path class="st2" d="M16.6,13.4c-5.2,2.8-7.3,7.6-3.1,13.9"/>
	</g>
</g>
</svg>
