<?xml version="1.0" encoding="utf-8"?>
<!-- Generator: Adobe Illustrator 19.0.0, SVG Export Plug-In . SVG Version: 6.00 Build 0)  -->
<svg version="1.1" id="Layer_1" xmlns="http://www.w3.org/2000/svg" xmlns:xlink="http://www.w3.org/1999/xlink" x="0px" y="0px"
	 viewBox="-288 379 35 35" style="enable-background:new -288 379 35 35;" xml:space="preserve">
<style type="text/css">
	.st0{fill:none;stroke:#505050;stroke-width:0.6;stroke-miterlimit:10;}
	.st1{fill:#212E4B;}
</style>
<rect x="-776.3" y="733.7" class="st0" width="0.8" height="0.3"/>
<g>
	<path class="st1" d="M-259.9,383.6h-18c-0.2,0-0.4,0.2-0.4,0.4v3.5h-2.9c-0.2,0-0.4,0.2-0.4,0.4V409c0,0.2,0.2,0.4,0.4,0.4h18
		c0.2,0,0.4-0.2,0.4-0.4v-3.5h2.9c0.2,0,0.4-0.2,0.4-0.4V384C-259.5,383.7-259.7,383.6-259.9,383.6
		C-259.9,383.6-259.9,383.6-259.9,383.6L-259.9,383.6z M-280.7,408.7v-20.5h17.2v17v0c0,0,0,0,0,0v3.5L-280.7,408.7z M-260.3,404.8
		h-2.5v-17c0-0.2-0.2-0.4-0.4-0.4h-14.3v-3.1h17.2V404.8z"/>
	<path class="st1" d="M-265.9,390.2h-4.6c-0.2,0-0.4,0.2-0.4,0.4s0.2,0.4,0.4,0.4h4.6c0.2,0,0.4-0.2,0.4-0.4
		S-265.6,390.2-265.9,390.2z"/>
	<path class="st1" d="M-265.9,394.1h-12.5c-0.2,0-0.4,0.2-0.4,0.4s0.2,0.4,0.4,0.4l0,0h12.5c0.2,0,0.4-0.2,0.4-0.4
		S-265.6,394.1-265.9,394.1z"/>
	<path class="st1" d="M-265.9,399h-12.5c-0.2,0-0.4,0.2-0.4,0.4c0,0.2,0.2,0.4,0.4,0.4l0,0h12.5c0.2,0,0.4-0.2,0.4-0.4
		C-265.5,399.2-265.6,399-265.9,399z"/>
	<path class="st1" d="M-265.9,404h-12.5c-0.2,0-0.4,0.2-0.4,0.4s0.2,0.4,0.4,0.4l0,0h12.5c0.2,0,0.4-0.2,0.4-0.4
		S-265.6,404-265.9,404z"/>
</g>
</svg>
