<?xml version="1.0" encoding="utf-8"?>
<!-- Generator: Adobe Illustrator 19.0.0, SVG Export Plug-In . SVG Version: 6.00 Build 0)  -->
<svg version="1.1" id="Layer_1" xmlns="http://www.w3.org/2000/svg" xmlns:xlink="http://www.w3.org/1999/xlink" x="0px" y="0px"
	 viewBox="-288 379 35 35" style="enable-background:new -288 379 35 35;" xml:space="preserve">
<style type="text/css">
	.st0{fill:none;stroke:#505050;stroke-width:0.6;stroke-miterlimit:10;}
	.st1{fill:none;stroke:#CC092F;stroke-width:0.6;stroke-miterlimit:10;}
	.st2{fill:none;stroke:#CC092F;stroke-width:0.9;stroke-miterlimit:10;}
	.st3{fill:#0B67BD;}
</style>
<rect x="-464.3" y="328.8" class="st0" width="0.8" height="0.3"/>
<rect x="-444.3" y="352.6" class="st1" width="26" height="16.3"/>
<g>
	<circle class="st2" cx="-237.4" cy="381.1" r="6.8"/>
	<path class="st2" d="M-240.8,381.1c0-1.9,1.5-3.4,3.4-3.4"/>
	<line class="st2" x1="-232.3" y1="385.5" x2="-227.3" y2="390.4"/>
</g>
<g>
	<path class="st3" d="M-259.9,399.7c-0.3,0-0.6,0.3-0.6,0.6v5.5c0,1-0.8,1.9-1.9,1.9h-17.5c-1,0-1.9-0.8-1.9-1.9v-16.2
		c0-1,0.8-1.9,1.9-1.9h5.5c0.3,0,0.6-0.3,0.6-0.6c0-0.3-0.3-0.6-0.6-0.6h-5.5c-1.7,0-3.1,1.4-3.1,3.1v16.2c0,1.7,1.4,3.1,3.1,3.1
		h17.5c1.7,0,3.1-1.4,3.1-3.1v-5.5C-259.3,400-259.6,399.7-259.9,399.7z"/>
	<path class="st3" d="M-259.6,384.9c-1.1-1.1-2.9-1.1-4,0l-11.1,11.1c-0.1,0.1-0.1,0.2-0.2,0.3l-1.5,5.3c-0.1,0.2,0,0.4,0.2,0.6
		c0.2,0.2,0.4,0.2,0.6,0.2l5.3-1.5c0.1,0,0.2-0.1,0.3-0.2l11.1-11.1c1.1-1.1,1.1-2.9,0-4L-259.6,384.9z M-273.3,396.4l9.1-9.1
		l2.9,2.9l-9.1,9.1L-273.3,396.4z M-273.8,397.6l2.3,2.3l-3.2,0.9L-273.8,397.6z M-259.7,388.7l-0.7,0.7l-2.9-2.9l0.7-0.7
		c0.6-0.6,1.6-0.6,2.2,0l0.7,0.7C-259.1,387.1-259.1,388.1-259.7,388.7z"/>
</g>
</svg>
