<?xml version="1.0" encoding="utf-8"?>
<!-- Generator: Adobe Illustrator 19.0.0, SVG Export Plug-In . SVG Version: 6.00 Build 0)  -->
<svg version="1.1" id="Layer_1" xmlns="http://www.w3.org/2000/svg" xmlns:xlink="http://www.w3.org/1999/xlink" x="0px" y="0px"
	 viewBox="-288 379 35 35" style="enable-background:new -288 379 35 35;" xml:space="preserve">
<style type="text/css">
	.st0{fill:none;stroke:#505050;stroke-width:0.6;stroke-miterlimit:10;}
	.st1{fill:none;stroke:#CC092F;stroke-width:0.6;stroke-miterlimit:10;}
	.st2{fill:#FFBC00;}
</style>
<rect x="-464.3" y="328.8" class="st0" width="0.8" height="0.3"/>
<rect x="-444.3" y="352.6" class="st1" width="26" height="16.3"/>
<g>
	<path class="st2" d="M-281.3,382.4v28.2c0,0.3,0.2,0.5,0.5,0.5h20.6c0.3,0,0.5-0.2,0.5-0.5v-22.8c0,0,0,0,0,0c0,0,0-0.1,0-0.1
		c0,0,0,0,0-0.1c0-0.1-0.1-0.1-0.1-0.2l-5.4-5.4c0,0-0.1-0.1-0.2-0.1c0,0,0,0,0,0c0,0-0.1,0-0.1,0c0,0,0,0,0,0h-15.2
		C-281.1,381.9-281.3,382.1-281.3,382.4z M-261.5,387.3h-3.6v-3.6L-261.5,387.3z M-280.3,382.9h14.1v4.9c0,0.3,0.2,0.5,0.5,0.5h4.9
		v21.7h-19.5V382.9z"/>
	<path class="st2" d="M-277,393.5h13v1.1h-13V393.5z"/>
	<path class="st2" d="M-277,390.2h4.3v1.1h-4.3V390.2z"/>
	<path class="st2" d="M-277,402.5h13v1.1h-13V402.5z"/>
	<path class="st2" d="M-272.1,398.2h8.1v1.1h-8.1V398.2z"/>
	<path class="st2" d="M-277,398.2h3.8v1.1h-3.8V398.2z"/>
</g>
</svg>
