<?xml version="1.0" encoding="utf-8"?>
<!-- Generator: Adobe Illustrator 16.0.0, SVG Export Plug-In . SVG Version: 6.00 Build 0)  -->
<!DOCTYPE svg PUBLIC "-//W3C//DTD SVG 1.1//EN" "http://www.w3.org/Graphics/SVG/1.1/DTD/svg11.dtd">
<svg version="1.1" id="Layer_1" xmlns="http://www.w3.org/2000/svg" xmlns:xlink="http://www.w3.org/1999/xlink" x="0px" y="0px"
	 width="35px" height="35px" viewBox="0 0 35 35" enable-background="new 0 0 35 35" xml:space="preserve">
<g>
	<g>
		<g>
			<path fill="#FFFFFF" d="M25.629,34.483H9.372V0.517h16.257V34.483z M10.354,33.502h14.293V1.498H10.354V33.502z"/>
		</g>
		<g>
			<path fill="#FFFFFF" d="M22.551,34.199H12.365v-8.943h10.186V34.199z M13.347,33.217h8.222v-6.979h-8.222V33.217z"/>
		</g>
		<g>
			<rect x="12.449" y="3.267" fill="#FFFFFF" width="10.102" height="0.981"/>
		</g>
		<g>
			<rect x="12.449" y="8.763" fill="#FFFFFF" width="10.102" height="0.982"/>
		</g>
		<g>
			<rect x="12.449" y="14.261" fill="#FFFFFF" width="10.102" height="0.981"/>
		</g>
		<g>
			<rect x="12.449" y="19.759" fill="#FFFFFF" width="10.102" height="0.981"/>
		</g>
		<g>
			<g>
				<path fill="#FFFFFF" d="M31.845,34.483h-7.198V17.01h7.198V34.483z M25.629,33.502h5.235V17.991h-5.235V33.502z"/>
			</g>
			<g>
				<rect x="27.559" y="19.759" fill="#FFFFFF" width="1.376" height="0.981"/>
			</g>
			<g>
				<rect x="27.559" y="25.256" fill="#FFFFFF" width="1.376" height="0.981"/>
			</g>
			<g>
				<rect x="27.559" y="30.754" fill="#FFFFFF" width="1.376" height="0.981"/>
			</g>
		</g>
		<g>
			<g>
				<path fill="#FFFFFF" d="M10.354,34.483H3.155V17.01h7.198V34.483z M4.138,33.502h5.234V17.991H4.138V33.502z"/>
			</g>
			<g>
				<rect x="6.067" y="19.759" fill="#FFFFFF" width="1.374" height="0.981"/>
			</g>
			<g>
				<rect x="6.067" y="25.256" fill="#FFFFFF" width="1.374" height="0.981"/>
			</g>
			<g>
				<rect x="6.067" y="30.754" fill="#FFFFFF" width="1.374" height="0.981"/>
			</g>
		</g>
	</g>
	<g>
		<rect x="1.887" y="33.502" fill="#FFFFFF" width="31.227" height="0.981"/>
	</g>
</g>
</svg>
