<?xml version="1.0" encoding="utf-8"?>
<!-- Generator: Adobe Illustrator 19.0.0, SVG Export Plug-In . SVG Version: 6.00 Build 0)  -->
<svg version="1.1" id="Camada_1" xmlns="http://www.w3.org/2000/svg" xmlns:xlink="http://www.w3.org/1999/xlink" x="0px" y="0px"
	 viewBox="0 0 60 60" style="enable-background:new 0 0 60 60;" xml:space="preserve">
<style type="text/css">
	.st0{fill:#EF7738;}
	.st1{opacity:0.1;fill:#010202;enable-background:new    ;}
	.st2{fill:#E6E7E9;}
	.st3{fill:#DBD7DC;}
	.st4{fill:#314751;}
	.st5{fill:#D59245;}
	.st6{fill:#49B29B;}
</style>
<g id="XMLID_1_">
	<circle id="XMLID_11_" class="st0" cx="30" cy="30" r="29"/>
	<path id="XMLID_10_" class="st1" d="M18.6,32.9l1.3-1.3c-2.9-3.9-2.5-9.4,1-13c1.1-1,2.3-1.8,3.6-2.3v-3.8H41l8.9,8.9v0l9,9
		C58.7,46.3,45.8,59,30,59c-1.1,0-2.1-0.1-3.2-0.2l-16-16c-1-1-1-2.7,0-3.8l4.4-4.4l0.8-0.8l0.3-0.3C16.9,33,17.8,32.7,18.6,32.9z"
		/>
	<path id="XMLID_9_" class="st2" d="M41,12.6H24.5v34.8H50V21.5L41,12.6z"/>
	<path id="XMLID_8_" class="st3" d="M41,21.5H50L41,12.6V21.5z"/>
	<path id="XMLID_7_" class="st4" d="M20.1,33.6c-1-1-2.7-1-3.8,0l-5.5,5.5c-1,1-1,2.7,0,3.8c1,1,2.7,1,3.8,0l5.5-5.5
		C21.1,36.3,21.1,34.6,20.1,33.6z"/>
	<path id="XMLID_6_" class="st5" d="M16,33.9l3.8,3.8L19,38.4l-3.8-3.8L16,33.9z"/>
	<circle id="XMLID_5_" class="st4" cx="27.9" cy="25.7" r="10"/>
	<circle id="XMLID_4_" class="st3" cx="27.9" cy="25.7" r="8.1"/>
	<circle id="XMLID_3_" class="st6" cx="27.9" cy="25.7" r="7.1"/>
	<path id="XMLID_2_" class="st2" d="M23.9,22.3c-0.2-0.2-0.2-0.4,0-0.6c2.2-2.2,5.9-2.2,8.1,0c0.2,0.2,0.2,0.4,0,0.6
		c-0.2,0.2-0.4,0.2-0.6,0c-1.9-1.9-5-1.9-6.9,0C24.3,22.4,24.1,22.4,23.9,22.3z"/>
</g>
</svg>
