<?xml version="1.0" encoding="utf-8"?>
<!-- Generator: Adobe Illustrator 24.1.2, SVG Export Plug-In . SVG Version: 6.00 Build 0)  -->
<svg version="1.1" id="Layer_1" xmlns="http://www.w3.org/2000/svg" xmlns:xlink="http://www.w3.org/1999/xlink" x="0px" y="0px"
	 viewBox="0 0 35 35" style="enable-background:new 0 0 35 35;" xml:space="preserve">
<style type="text/css">
	.st0{fill:none;stroke:#505050;stroke-width:0.6;stroke-miterlimit:10;}
	.st1{fill:#799282;}
</style>
<rect x="-488.3" y="354.7" class="st0" width="0.8" height="0.3"/>
<g>
	<g>
		<path class="st1" d="M25.4,12.2c-0.4,0-0.8,0.1-1.2,0.4c-0.3-0.8-1.1-1.4-2-1.4c-0.4,0-0.8,0.1-1.2,0.4c-0.3-0.8-1.1-1.4-2-1.4
			c-0.4,0-0.7,0.1-1.1,0.3V7c0-1.2-0.9-2.1-2.1-2.1S13.8,5.8,13.8,7v12.3l-2.9-1.4c-0.4-0.2-0.9-0.3-1.4-0.3c-1.1,0-2,0.9-2,2
			c0,0.5,0.2,1,0.6,1.4l6.8,6.8c1.5,1.5,3.6,2.4,5.8,2.4c3.8,0,6.9-3.1,6.9-6.9v-9C27.5,13.2,26.6,12.2,25.4,12.2z M26.5,23.3
			c0,3.2-2.6,5.8-5.8,5.8c-1.9,0-3.7-0.7-5-2.1l-6.8-6.8c-0.2-0.2-0.3-0.4-0.3-0.7c0-0.5,0.4-1,1-1c0.3,0,0.7,0.1,0.9,0.2l3.7,1.8
			c0.2,0.1,0.4,0.1,0.5,0c0.2-0.1,0.2-0.3,0.2-0.4V7c0-0.6,0.5-1.1,1.1-1.1C16.5,5.9,17,6.4,17,7v10c0,0.3,0.2,0.5,0.5,0.5
			c0.3,0,0.5-0.2,0.5-0.5v-4.7c0-0.6,0.5-1.1,1.1-1.1c0.6,0,1.1,0.5,1.1,1.1V17c0,0.3,0.2,0.5,0.5,0.5c0.3,0,0.5-0.2,0.5-0.5v-3.7
			c0-0.6,0.5-1.1,1.1-1.1s1.1,0.5,1.1,1.1V17c0,0.3,0.2,0.5,0.5,0.5c0.3,0,0.5-0.2,0.5-0.5v-2.6c0-0.6,0.5-1.1,1.1-1.1
			s1.1,0.5,1.1,1.1V23.3z"/>
	</g>
</g>
</svg>
