<?xml version="1.0" encoding="utf-8"?>
<!-- Generator: Adobe Illustrator 16.0.0, SVG Export Plug-In . SVG Version: 6.00 Build 0)  -->
<!DOCTYPE svg PUBLIC "-//W3C//DTD SVG 1.1//EN" "http://www.w3.org/Graphics/SVG/1.1/DTD/svg11.dtd">
<svg version="1.1" id="Layer_1" xmlns="http://www.w3.org/2000/svg" xmlns:xlink="http://www.w3.org/1999/xlink" x="0px" y="0px"
	 width="35px" height="35px" viewBox="0 0 35 35" enable-background="new 0 0 35 35" xml:space="preserve">
<g>
	<g>
		<path fill="none" stroke="#D8E3F5" stroke-linecap="round" stroke-linejoin="round" stroke-miterlimit="10" d="M31.398,3.586
			H3.603c-0.695,0-1.264,0.568-1.264,1.265v17.688h30.322V4.851C32.661,4.154,32.093,3.586,31.398,3.586z"/>
		<path fill="none" stroke="#D8E3F5" stroke-linecap="round" stroke-linejoin="round" stroke-miterlimit="10" d="M2.339,25.064
			c0,0.695,0.569,1.264,1.264,1.264h27.796c0.694,0,1.263-0.568,1.263-1.264v-2.526H2.339V25.064z"/>
	</g>
	
		<rect x="15.605" y="26.328" fill="none" stroke="#D8E3F5" stroke-linecap="round" stroke-linejoin="round" stroke-miterlimit="10" width="3.79" height="5.054"/>
	<path fill="none" stroke="#D8E3F5" stroke-linecap="round" stroke-linejoin="round" stroke-miterlimit="10" d="M21.921,31.414
		h-8.843c-0.017,0-0.032-0.014-0.032-0.032c0-0.018,0.015-0.031,0.032-0.031h8.843c0.02,0,0.033,0.014,0.033,0.031
		C21.954,31.4,21.94,31.414,21.921,31.414z"/>
</g>
</svg>
