<?xml version="1.0" encoding="utf-8"?>
<!-- Generator: Adobe Illustrator 16.0.0, SVG Export Plug-In . SVG Version: 6.00 Build 0)  -->
<!DOCTYPE svg PUBLIC "-//W3C//DTD SVG 1.1//EN" "http://www.w3.org/Graphics/SVG/1.1/DTD/svg11.dtd">
<svg version="1.1" id="Layer_1" xmlns="http://www.w3.org/2000/svg" xmlns:xlink="http://www.w3.org/1999/xlink" x="0px" y="0px"
	 width="35px" height="20px" viewBox="0 0 35 20" enable-background="new 0 0 35 20" xml:space="preserve">
<g>
	<path fill="none" stroke="#FFFFFF" stroke-linejoin="round" stroke-miterlimit="10" d="M20.041,11.253l-2.499,2.278l-2.495-2.275
		c-2.791,0.57-4.909,2.173-4.909,4.978v2.429h14.81v-2.429C24.947,13.409,22.83,11.819,20.041,11.253z"/>
	<circle fill="none" stroke="#FFFFFF" stroke-linejoin="round" stroke-miterlimit="10" cx="17.542" cy="5.451" r="4.113"/>
	<path fill="none" stroke="#FFFFFF" stroke-linejoin="round" stroke-miterlimit="10" d="M11.364,13.084
		c-0.613-0.352-1.331-0.603-2.109-0.76l-2.136,1.947l-2.133-1.945c-2.386,0.489-4.197,1.857-4.197,4.255v2.077h9.349"/>
	<circle fill="none" stroke="#FFFFFF" stroke-linejoin="round" stroke-miterlimit="10" cx="7.119" cy="7.363" r="3.516"/>
	<path fill="none" stroke="#FFFFFF" stroke-linejoin="round" stroke-miterlimit="10" d="M24.947,18.658h9.264v-2.077
		c0-2.415-1.811-3.772-4.195-4.257l-2.135,1.947l-2.134-1.945c-0.744,0.152-1.435,0.391-2.03,0.72"/>
	<circle fill="none" stroke="#FFFFFF" stroke-linejoin="round" stroke-miterlimit="10" cx="27.881" cy="7.363" r="3.516"/>
</g>
</svg>
